<svg width="20" height="20" viewBox="0 0 20 20" fill="none" xmlns="http://www.w3.org/2000/svg">
<path d="M8.44421 8.77998L9.78671 7.54998C10.1538 7.21301 10.4118 6.77402 10.5276 6.28937C10.6434 5.80472 10.6118 5.29651 10.4367 4.82998L9.86421 3.30123C9.65032 2.7305 9.22689 2.26279 8.68018 1.99338C8.13346 1.72397 7.5046 1.67314 6.92171 1.85123C4.77671 2.50748 3.12796 4.50123 3.63546 6.86873C3.96921 8.42623 4.60796 10.3812 5.81796 12.4612C7.03046 14.5462 8.41546 16.0862 9.60296 17.1687C11.3955 18.8 13.958 18.3925 15.6067 16.855C16.0487 16.4429 16.3168 15.8778 16.3566 15.2748C16.3963 14.6719 16.2046 14.0765 15.8205 13.61L14.7705 12.335C14.4538 11.9494 14.029 11.6674 13.5507 11.5253C13.0724 11.3832 12.5626 11.3874 12.0867 11.5375L10.3517 12.0837C9.90365 11.6213 9.511 11.1083 9.18171 10.555C8.86388 9.99543 8.61618 9.39885 8.44421 8.77873V8.77998Z" fill="#292D33"/>
</svg>
