<svg width="60" height="60" viewBox="0 0 60 60" fill="none" xmlns="http://www.w3.org/2000/svg">
<path d="M15.0005 6C14.6027 6 14.2212 6.15804 13.9399 6.43934C13.6586 6.72064 13.5005 7.10218 13.5005 7.5C13.5005 7.89782 13.6586 8.27936 13.9399 8.56066C14.2212 8.84196 14.6027 9 15.0005 9H18.0005V12H16.5005C15.3071 12 14.1625 12.4741 13.3186 13.318C12.4747 14.1619 12.0005 15.3065 12.0005 16.5V30H27.0006V16.5C27.0006 15.3065 26.5264 14.1619 25.6825 13.318C24.8386 12.4741 23.694 12 22.5006 12H21.0006V9H24.0006C24.3984 9 24.7799 8.84196 25.0612 8.56066C25.3425 8.27936 25.5006 7.89782 25.5006 7.5C25.5006 7.10218 25.3425 6.72064 25.0612 6.43934C24.7799 6.15804 24.3984 6 24.0006 6H15.0005ZM36.0006 12C35.6027 12 35.2212 12.158 34.9399 12.4393C34.6586 12.7206 34.5006 13.1022 34.5006 13.5C34.5006 13.8978 34.6586 14.2794 34.9399 14.5607C35.2212 14.842 35.6027 15 36.0006 15H39.0006V18H37.5006C36.3071 18 35.1625 18.4741 34.3186 19.318C33.4747 20.1619 33.0006 21.3065 33.0006 22.5V27H48.0006V22.5C48.0006 21.3065 47.5264 20.1619 46.6825 19.318C45.8386 18.4741 44.694 18 43.5006 18H42.0006V15H45.0006C45.3984 15 45.7799 14.842 46.0612 14.5607C46.3425 14.2794 46.5006 13.8978 46.5006 13.5C46.5006 13.1022 46.3425 12.7206 46.0612 12.4393C45.7799 12.158 45.3984 12 45.0006 12H36.0006ZM13.5005 46.5C13.5005 46.8978 13.6586 47.2794 13.9399 47.5607C14.2212 47.842 14.6027 48 15.0005 48H24.0006C24.3984 48 24.7799 47.842 25.0612 47.5607C25.3425 47.2794 25.5006 46.8978 25.5006 46.5C25.5006 46.1022 25.3425 45.7206 25.0612 45.4393C24.7799 45.158 24.3984 45 24.0006 45H21.0006V42H22.5006C23.694 42 24.8386 41.5259 25.6825 40.682C26.5264 39.8381 27.0006 38.6935 27.0006 37.5V33H12.0005V37.5C12.0005 38.6935 12.4747 39.8381 13.3186 40.682C14.1625 41.5259 15.3071 42 16.5005 42H18.0005V45H15.0005C14.6027 45 14.2212 45.158 13.9399 45.4393C13.6586 45.7206 13.5005 46.1022 13.5005 46.5ZM36.0006 54C35.6027 54 35.2212 53.842 34.9399 53.5607C34.6586 53.2794 34.5006 52.8978 34.5006 52.5C34.5006 52.1022 34.6586 51.7206 34.9399 51.4393C35.2212 51.158 35.6027 51 36.0006 51H39.0006V48H37.5006C36.3071 48 35.1625 47.5259 34.3186 46.682C33.4747 45.8381 33.0006 44.6935 33.0006 43.5V30H48.0006V43.5C48.0006 44.6935 47.5264 45.8381 46.6825 46.682C45.8386 47.5259 44.694 48 43.5006 48H42.0006V51H45.0006C45.3984 51 45.7799 51.158 46.0612 51.4393C46.3425 51.7206 46.5006 52.1022 46.5006 52.5C46.5006 52.8978 46.3425 53.2794 46.0612 53.5607C45.7799 53.842 45.3984 54 45.0006 54H36.0006Z" fill="#185CFF"/>
</svg>
