<svg width="16" height="16" viewBox="0 0 16 16" fill="none" xmlns="http://www.w3.org/2000/svg">
<path d="M14.404 3.22642C14.4034 2.80442 14.2361 2.39976 13.9385 2.10054C13.641 1.80132 13.2372 1.63177 12.8152 1.62882L8.90324 1.60322C8.69164 1.60179 8.48185 1.64234 8.28604 1.72254C8.09022 1.80273 7.91225 1.92097 7.76244 2.07042L2.41684 7.40162C2.26797 7.55011 2.14983 7.72649 2.06917 7.92067C1.98852 8.11485 1.94693 8.32302 1.94678 8.53329C1.94663 8.74355 1.98793 8.95178 2.06831 9.14608C2.14869 9.34037 2.26658 9.51691 2.41524 9.66562L6.37444 13.6256C6.67448 13.9256 7.08137 14.0941 7.50564 14.0941C7.9299 14.0941 8.33679 13.9256 8.63684 13.6256L13.9416 8.32002C14.0905 8.17119 14.2085 7.99445 14.289 7.79993C14.3694 7.6054 14.4107 7.39692 14.4104 7.18642L14.404 3.22642ZM11.1992 5.60002C10.9871 5.60002 10.7836 5.51573 10.6336 5.3657C10.4835 5.21567 10.3992 5.01219 10.3992 4.80002C10.3992 4.58784 10.4835 4.38436 10.6336 4.23433C10.7836 4.0843 10.9871 4.00002 11.1992 4.00002C11.4114 4.00002 11.6149 4.0843 11.7649 4.23433C11.915 4.38436 11.9992 4.58784 11.9992 4.80002C11.9992 5.01219 11.915 5.21567 11.7649 5.3657C11.6149 5.51573 11.4114 5.60002 11.1992 5.60002Z" fill="#9497A1"/>
</svg>
