<svg width="24" height="24" viewBox="0 0 24 24" fill="none" xmlns="http://www.w3.org/2000/svg">
<path d="M4.21 4.38708L4.293 4.29308C4.46519 4.1209 4.69429 4.01747 4.93732 4.00219C5.18034 3.98691 5.42059 4.06083 5.613 4.21008L5.707 4.29308L12 10.5851L18.293 4.29308C18.3852 4.19757 18.4956 4.12139 18.6176 4.06898C18.7396 4.01657 18.8708 3.98898 19.0036 3.98783C19.1364 3.98668 19.2681 4.01198 19.391 4.06226C19.5138 4.11254 19.6255 4.18679 19.7194 4.28069C19.8133 4.37458 19.8875 4.48623 19.9378 4.60913C19.9881 4.73202 20.0134 4.8637 20.0122 4.99648C20.0111 5.12926 19.9835 5.26048 19.9311 5.38249C19.8787 5.50449 19.8025 5.61483 19.707 5.70708L13.415 12.0001L19.707 18.2931C19.8792 18.4653 19.9826 18.6944 19.9979 18.9374C20.0132 19.1804 19.9393 19.4207 19.79 19.6131L19.707 19.7071C19.5348 19.8793 19.3057 19.9827 19.0627 19.998C18.8197 20.0133 18.5794 19.9393 18.387 19.7901L18.293 19.7071L12 13.4151L5.707 19.7071C5.5184 19.8892 5.26579 19.99 5.0036 19.9878C4.7414 19.9855 4.49059 19.8803 4.30518 19.6949C4.11977 19.5095 4.0146 19.2587 4.01232 18.9965C4.01005 18.7343 4.11084 18.4817 4.293 18.2931L10.585 12.0001L4.293 5.70708C4.12082 5.53489 4.01739 5.30579 4.00211 5.06276C3.98683 4.81974 4.06075 4.57949 4.21 4.38708L4.293 4.29308L4.21 4.38708Z" fill="#292D33"/>
</svg>
